<svg width="448" height="463" viewBox="0 0 448 463" fill="none" xmlns="http://www.w3.org/2000/svg">
<g clip-path="url(#clip0_637_2)" filter="url(#filter0_d_637_2)">
<g opacity="0.1">
<g opacity="0.1">
<path opacity="0.1" d="M10 235.419H224.036V21.7656C105.834 21.7656 10 117.428 10 235.419Z" fill="#1E1E1E"/>
<path opacity="0.1" d="M438 235.419C438 117.428 342.166 21.7656 223.964 21.7656V235.419H438Z" fill="#1E1E1E"/>
<path opacity="0.1" d="M10 235.418C10 353.338 105.834 449 224.036 449V235.418H10Z" fill="#1E1E1E"/>
<path opacity="0.1" d="M224.036 449C342.238 449 438.071 353.338 438.071 235.347H224.036V449Z" fill="#1E1E1E"/>
</g>
</g>
<path d="M10 219.653H224.036V6C105.834 6 10 101.662 10 219.653Z" fill="#F37920"/>
<path d="M438 219.653C438 101.662 342.166 6 224.036 6V219.653H438Z" fill="#3CBDB2"/>
<path d="M10 219.653C10 337.643 105.834 433.306 224.036 433.306V219.653H10Z" fill="#FFC624"/>
<path d="M224.036 433.234C342.238 433.234 438.071 337.572 438.071 219.582H224.036V433.234Z" fill="#9ECD43"/>
<path d="M230.549 115.782C228.666 114.073 226.526 113.133 224.045 113.133C221.306 113.133 219.081 113.988 217.284 115.782C215.572 117.49 214.631 119.797 214.631 122.53C214.631 125.264 215.487 127.485 217.284 129.279C218.995 130.987 221.306 131.927 224.045 131.927C226.526 131.927 228.751 131.073 230.549 129.364C232.431 127.656 233.373 125.349 233.373 122.616C233.373 119.797 232.431 117.49 230.549 115.782Z" fill="white"/>
<path d="M224.045 326.101C221.306 326.101 219.081 325.247 217.284 323.453C215.572 321.744 214.631 319.438 214.631 316.704C214.631 313.97 215.487 311.749 217.284 309.955C218.995 308.247 221.306 307.307 224.045 307.307C226.526 307.307 228.751 308.161 230.549 309.955C232.431 311.749 233.373 313.97 233.373 316.704C233.373 319.438 232.431 321.659 230.549 323.453C228.666 325.161 226.526 326.101 224.045 326.101ZM224.045 309.955C221.991 309.955 220.45 310.553 219.167 311.835C217.883 313.116 217.284 314.654 217.284 316.704C217.284 318.754 217.883 320.292 219.167 321.573C220.45 322.855 221.991 323.453 224.045 323.453C225.842 323.453 227.382 322.855 228.837 321.573C230.206 320.292 230.805 318.754 230.805 316.704C230.805 314.739 230.121 313.116 228.837 311.835C227.382 310.639 225.842 309.955 224.045 309.955Z" fill="white"/>
<path d="M153.527 181.816C153.527 177.288 154.382 173.103 156.094 169.088C157.805 165.158 160.116 161.655 163.026 158.751C165.936 155.846 169.359 153.54 173.381 151.831C177.318 150.123 181.597 149.269 186.132 149.269C190.668 149.269 194.861 150.123 198.884 151.831C202.82 153.54 206.243 155.846 209.068 158.666C210.779 155.932 212.747 153.455 214.972 151.233C215.229 150.977 215.572 150.721 215.828 150.465C212.148 146.962 207.869 144.228 202.991 142.093C197.685 139.872 192.037 138.676 186.047 138.676C180.056 138.676 174.408 139.786 169.102 142.093C163.796 144.314 159.26 147.389 155.409 151.233C151.558 155.078 148.477 159.691 146.252 164.902C144.027 170.198 142.829 175.836 142.829 181.816V219.66H153.441V181.816H153.527Z" fill="white"/>
<path d="M218.653 257.503C218.653 262.031 217.797 266.217 216.086 270.232C216 270.403 215.915 270.488 215.829 270.659C214.118 274.418 211.892 277.75 209.154 280.483L209.068 280.569C206.159 283.388 202.821 285.694 198.884 287.403C194.862 289.111 190.669 289.965 186.133 289.965C181.597 289.965 177.404 289.111 173.382 287.403C169.36 285.694 165.936 283.388 163.027 280.483C160.117 277.579 157.806 274.162 156.095 270.147C154.383 266.217 153.527 261.946 153.527 257.418V219.574H142.916V257.418C142.916 263.398 144.028 269.036 146.339 274.332C148.564 279.629 151.645 284.157 155.496 288.001C159.347 291.845 163.968 294.92 169.188 297.141C174.494 299.362 180.057 300.558 186.133 300.558C192.124 300.558 197.772 299.448 203.078 297.141C207.956 295.091 212.235 292.272 215.915 288.77C216.171 288.513 216.514 288.257 216.77 288.001C218.996 285.78 220.964 283.217 222.675 280.569C223.189 279.8 223.531 278.86 224.045 278.006C224.729 276.81 225.414 275.614 226.013 274.332C228.238 269.036 229.436 263.483 229.436 257.418V219.574H218.824V257.503H218.653Z" fill="white"/>
<path d="M305.087 181.816C305.087 175.836 303.975 170.198 301.664 164.902C299.439 159.605 296.358 155.078 292.507 151.233C288.656 147.389 284.035 144.314 278.814 142.093C273.508 139.872 267.86 138.676 261.87 138.676C255.879 138.676 250.231 139.786 244.925 142.093C240.047 144.143 235.768 146.962 232.088 150.465C231.831 150.721 231.489 150.977 231.232 151.233C229.007 153.455 227.039 156.017 225.327 158.751C224.814 159.52 224.471 160.459 223.958 161.314C223.273 162.51 222.589 163.706 221.99 164.987C219.765 170.284 218.566 175.922 218.566 181.902V214.107V219.66H229.178V214.193V181.816C229.178 177.288 230.034 173.103 231.746 169.088C231.831 168.917 231.917 168.831 232.002 168.66C233.714 164.902 235.939 161.57 238.678 158.751L238.763 158.666C241.673 155.846 245.01 153.54 248.947 151.831C252.884 150.123 257.163 149.269 261.698 149.269C266.234 149.269 270.427 150.123 274.45 151.831C278.386 153.54 281.895 155.846 284.805 158.751C287.715 161.655 290.025 165.073 291.737 169.088C293.448 173.103 294.304 177.288 294.304 181.816V219.66H304.916V181.816H305.087Z" fill="white"/>
<path d="M294.474 219.66V257.503C294.474 262.031 293.618 266.217 291.907 270.232C290.195 274.247 287.885 277.664 284.975 280.569C282.065 283.473 278.642 285.78 274.62 287.488C270.597 289.197 266.404 290.051 261.868 290.051C257.333 290.051 253.139 289.197 249.117 287.488C245.18 285.78 241.757 283.473 238.933 280.654C237.222 283.388 235.253 285.865 233.028 288.172C232.771 288.428 232.429 288.684 232.172 288.94C235.852 292.443 240.131 295.262 245.009 297.312C250.315 299.533 255.878 300.729 261.954 300.729C267.945 300.729 273.593 299.619 278.899 297.312C284.205 295.091 288.74 292.016 292.591 288.172C296.442 284.327 299.523 279.714 301.748 274.503C303.973 269.207 305.172 263.654 305.172 257.589V219.745H294.474V219.66Z" fill="white"/>
</g>
<defs>
<filter id="filter0_d_637_2" x="0" y="0" width="448" height="463" filterUnits="userSpaceOnUse" color-interpolation-filters="sRGB">
<feFlood flood-opacity="0" result="BackgroundImageFix"/>
<feColorMatrix in="SourceAlpha" type="matrix" values="0 0 0 0 0 0 0 0 0 0 0 0 0 0 0 0 0 0 127 0" result="hardAlpha"/>
<feOffset dy="4"/>
<feGaussianBlur stdDeviation="5"/>
<feColorMatrix type="matrix" values="0 0 0 0 0 0 0 0 0 0 0 0 0 0 0 0 0 0 0.1 0"/>
<feBlend mode="normal" in2="BackgroundImageFix" result="effect1_dropShadow_637_2"/>
<feBlend mode="normal" in="SourceGraphic" in2="effect1_dropShadow_637_2" result="shape"/>
</filter>
<clipPath id="clip0_637_2">
<rect width="428" height="443" fill="white" transform="translate(10 6)"/>
</clipPath>
</defs>
</svg>
